<?xml version="1.0" encoding="utf-8"?>
<!-- Generator: Adobe Illustrator 23.0.1, SVG Export Plug-In . SVG Version: 6.00 Build 0)  -->
<svg version="1.1" id="Layer_1" xmlns="http://www.w3.org/2000/svg" xmlns:xlink="http://www.w3.org/1999/xlink" x="0px" y="0px"
	 viewBox="0 0 563 603" style="enable-background:new 0 0 563 603;" xml:space="preserve">
<style type="text/css">
	.st0{fill:#FFFFFF;}
</style>
<path class="st0" d="M0,0v603h563V0H0z M549.1,337L549.1,337c-4,25.4-12,49.8-23.6,72.9c-27,53.9-67.1,95.9-116.9,129.1
	c-38.3,25.6-79.8,43.6-125.3,51.7c-27.8,6.5-57.9,2.5-58.8,2.4c-7.3-1-14.4-2.3-21.5-4.4c-28.1-8.3-48.2-26.8-64-50.6
	c-13.7-20.8-24-43.3-34.1-65.9c-20.2-45.6-40.6-91.1-67.1-133.6c-11.5-18.4-18.4-38.5-23.5-59.6c-5.9-24.8-2.5-54.4-2.4-55.3
	c1.1-6.9,1.9-13.8,3.5-20.7c8.9-40.2,28.2-75.2,55.6-105.6c39-43.3,86.4-72.3,143.4-84.5h0c0,0,0.1,0,0.3,0
	c1.6-0.3,10.2-1.7,22.4-2.9c0,0,0,0,0.1,0c18.6-1.8,45.6-2.8,69.1,1.9c0.1,0,0.3,0.1,0.4,0.1c5.2,0.9,10.5,2,15.7,3.2
	c57.4,12.3,108.7,42.1,148.1,83.2c39.4,41,66.9,93.3,77,150.8c0,0,0,0,0,0.1c0,0,0,0,0,0c0.1,0.4,0.3,1.5,0.6,3.4
	c0.4,2.6,0.8,5.2,1.2,7.8c0,0.3,0.1,0.8,0.1,1.5C551.5,279.4,554.3,311.8,549.1,337z"/>
</svg>
